<svg width="24" height="30" viewBox="0 0 24 30" fill="none" xmlns="http://www.w3.org/2000/svg">
<path d="M14.6739 9.78264C14.1339 9.78264 13.6956 9.34441 13.6956 8.80436V0H0.978281C0.438223 0 0 0.438223 0 0.978281V29.0218C0 29.5618 0.438223 30.0001 0.978281 30.0001H22.5C23.0401 30.0001 23.4783 29.5618 23.4783 29.0218V9.78264H14.6739ZM4.89129 24.1304C4.35105 24.1304 3.91301 23.6924 3.91301 23.1521C3.91301 22.6119 4.351 22.1739 4.89129 22.1739C5.43158 22.1739 5.86957 22.6119 5.86957 23.1521C5.86957 23.6924 5.43158 24.1304 4.89129 24.1304ZM4.89129 20.2174C4.35105 20.2174 3.91301 19.7794 3.91301 19.2391C3.91301 18.6988 4.351 18.2608 4.89129 18.2608C5.43158 18.2608 5.86957 18.6988 5.86957 19.2391C5.86957 19.7794 5.43158 20.2174 4.89129 20.2174ZM4.89129 16.3044C4.35105 16.3044 3.91301 15.8664 3.91301 15.3261C3.91301 14.7858 4.351 14.3478 4.89129 14.3478C5.43158 14.3478 5.86957 14.7858 5.86957 15.3261C5.86957 15.8664 5.43158 16.3044 4.89129 16.3044ZM18.587 24.1304H8.80435C8.2643 24.1304 7.82607 23.6922 7.82607 23.1521C7.82607 22.6121 8.2643 22.1739 8.80435 22.1739H18.587C19.127 22.1739 19.5653 22.6121 19.5653 23.1521C19.5653 23.6922 19.127 24.1304 18.587 24.1304ZM18.587 20.2174H8.80435C8.2643 20.2174 7.82607 19.7791 7.82607 19.2391C7.82607 18.699 8.2643 18.2608 8.80435 18.2608H18.587C19.127 18.2608 19.5653 18.699 19.5653 19.2391C19.5653 19.7791 19.127 20.2174 18.587 20.2174ZM18.587 16.3044H8.80435C8.2643 16.3044 7.82607 15.8661 7.82607 15.3261C7.82607 14.786 8.2643 14.3478 8.80435 14.3478H18.587C19.127 14.3478 19.5653 14.786 19.5653 15.3261C19.5652 15.8661 19.127 16.3044 18.587 16.3044Z" fill="#00B2FA"/>
<path d="M15.6522 0.57322V7.82608H22.9051L15.6522 0.57322Z" fill="#00B2FA"/>
</svg>
