<svg width="24" height="29" viewBox="0 0 24 29" fill="none" xmlns="http://www.w3.org/2000/svg">
<path d="M15 9.45653C14.4479 9.45653 14 9.03292 14 8.51086V0H1.00002C0.447961 0 0 0.423614 0 0.94567V28.0543C0 28.5764 0.447961 29 1.00002 29H23C23.552 29 24 28.5764 24 28.0543V9.45653H15Z" fill="#FFC600"/>
<path d="M16 0.554111V7.56519H23.4141L16 0.554111Z" fill="#FFC600"/>
<path d="M6.33885 20.0678H5.82338V22H4V16H6.33885C6.63633 16 6.91073 16.0339 7.16206 16.1017C7.41338 16.1695 7.64675 16.2768 7.86217 16.4237C8.08272 16.5706 8.25455 16.7797 8.37764 17.0508C8.50587 17.322 8.56998 17.6441 8.56998 18.0169C8.56998 18.3729 8.50587 18.6864 8.37764 18.9576C8.25455 19.2288 8.08529 19.4435 7.86987 19.6017C7.65958 19.7599 7.42364 19.8785 7.16206 19.9576C6.90561 20.0311 6.6312 20.0678 6.33885 20.0678ZM6.20806 17.5678H5.82338V18.5339H6.20806C6.36193 18.5339 6.49272 18.4915 6.60043 18.4068C6.70814 18.322 6.76199 18.1977 6.76199 18.0339C6.76199 17.7232 6.57735 17.5678 6.20806 17.5678Z" fill="white"/>
<path d="M11.4443 22H9.25928V16H11.2904C11.6494 16 11.9828 16.0282 12.2905 16.0847C12.5983 16.1412 12.8932 16.2429 13.1753 16.3898C13.4625 16.5311 13.7036 16.7119 13.8985 16.9322C14.0985 17.1469 14.2575 17.4294 14.3755 17.7797C14.4935 18.1243 14.5525 18.5198 14.5525 18.9661C14.5525 19.4746 14.4678 19.9294 14.2986 20.3305C14.1293 20.726 13.8959 21.0424 13.5985 21.2797C13.3061 21.5169 12.9778 21.6977 12.6137 21.822C12.2495 21.9407 11.8597 22 11.4443 22ZM11.4289 17.7119H11.0211V20.2712H11.3596C12.2521 20.2712 12.6983 19.8305 12.6983 18.9492C12.6983 18.565 12.5829 18.2627 12.3521 18.0424C12.1264 17.822 11.8187 17.7119 11.4289 17.7119Z" fill="white"/>
<path d="M17.1151 17.6864V18.322H18.7769V19.9661H17.1228V22H15.3225V16H19V17.6864H17.1151Z" fill="white"/>
</svg>
