<svg width="41" height="46" viewBox="0 0 41 46" fill="none" xmlns="http://www.w3.org/2000/svg">
<path d="M37 20.5C37 29.6127 29.6127 37 20.5 37C11.3873 37 4 29.6127 4 20.5C4 11.3873 11.3873 4 20.5 4C29.6127 4 37 11.3873 37 20.5Z" fill="white"/>
<path fill-rule="evenodd" clip-rule="evenodd" d="M41 20.5C41 31.8218 31.8218 41 20.5 41C9.17816 41 0 31.8218 0 20.5C0 9.17816 9.17816 0 20.5 0C31.8218 0 41 9.17816 41 20.5ZM20.5 37C29.6127 37 37 29.6127 37 20.5C37 11.3873 29.6127 4 20.5 4C11.3873 4 4 11.3873 4 20.5C4 29.6127 11.3873 37 20.5 37Z" fill="#0093d1"/>
<path d="M26 20.5C26 23.5376 23.5376 26 20.5 26C17.4624 26 15 23.5376 15 20.5C15 17.4624 17.4624 15 20.5 15C23.5376 15 26 17.4624 26 20.5Z" fill="white"/>
<path fill-rule="evenodd" clip-rule="evenodd" d="M32 20.5C32 26.8513 26.8513 32 20.5 32C14.1487 32 9 26.8513 9 20.5C9 14.1487 14.1487 9 20.5 9C26.8513 9 32 14.1487 32 20.5ZM20.5 26C23.5376 26 26 23.5376 26 20.5C26 17.4624 23.5376 15 20.5 15C17.4624 15 15 17.4624 15 20.5C15 23.5376 17.4624 26 20.5 26Z" fill="#0093d1"/>
<path fill-rule="evenodd" clip-rule="evenodd" d="M17.2065 22.3758C17.2079 20.6665 18.5285 19 20.4761 19C22.4241 19 23.7452 20.6676 23.7452 22.3783V25.8069C23.7471 25.8069 23.7491 25.8069 23.751 25.8069H23.7896C24.6103 25.8069 25.3282 26.1034 25.8805 26.5798C26.2391 26.4359 26.6378 26.3549 27.0711 26.3549C28.0603 26.3549 28.8682 26.7782 29.4309 27.4083C29.7234 27.3209 30.035 27.2737 30.3608 27.2737H30.3971C32.3311 27.2737 33.6548 28.9121 33.6587 30.6304C33.6587 30.6304 33.6587 30.6304 33.6587 30.6304C33.664 32.9375 33.6631 33.7094 33.6604 35.8023C33.6593 36.5847 33.658 37.5558 33.6568 38.8503C33.6535 42.2518 31.0526 45.29 27.5377 45.29H22.2059C19.9119 45.29 17.8827 43.9437 16.839 41.9381L11.4844 31.6479L12.9384 30.4321C12.9294 30.4404 12.9204 30.4487 12.9115 30.4571C12.9017 30.4662 12.8943 30.4733 12.8904 30.4769L12.8861 30.4811C12.8886 30.4787 12.8955 30.4722 12.905 30.4633L14.2757 31.9196L12.9306 30.44C12.9434 30.4286 12.9593 30.4147 12.9778 30.3992L12.9384 30.4321C13.7399 29.6949 14.809 29.3177 15.8967 29.3896L15.9066 29.3903L15.9165 29.391C16.3638 29.425 16.7975 29.5331 17.2014 29.7068L17.1998 32.1366L17.1998 32.1479L17.5252 32.544C17.7108 32.2977 17.9672 32.1036 18.2722 31.9944C18.2719 31.9945 18.2724 31.9943 18.2722 31.9944C18.577 31.8854 18.8995 31.8723 19.1999 31.9451L19.2003 31.4323L18.7471 30.8807C18.3311 30.3639 17.7987 29.9636 17.2014 29.7068L17.2065 22.3758ZM15.8619 31.395L15.7752 31.2283L15.4668 31.388C15.5653 31.3797 15.6649 31.3787 15.7648 31.3853C15.7973 31.3877 15.8297 31.391 15.8619 31.395ZM14.2611 31.9332L14.0007 32.1509L14.2611 31.9332ZM14.0007 32.1509L18.6131 41.0148L14.0007 32.1509ZM31.6604 35.7997C31.6593 36.5821 31.658 37.5534 31.6568 38.8484C31.6544 41.2937 29.8067 43.29 27.5377 43.29H22.2059C20.7181 43.29 19.3412 42.4139 18.6131 41.0148" fill="#0093d1"/>
<path d="M30.3964 29.2737H30.3601C29.6643 29.2737 29.0786 29.8652 29.0786 30.6253V31.679C29.0786 31.8888 28.9081 32.0592 28.6983 32.0592C28.4882 32.0592 28.318 31.8888 28.318 31.679V29.7334C28.318 28.9733 27.766 28.3549 27.0704 28.3549C26.3709 28.3549 25.819 28.9733 25.819 29.7334V31.7955C25.819 32.0056 25.6486 32.1758 25.4387 32.1758C25.2286 32.1758 25.0584 32.0056 25.0584 31.7955V29.1672C25.0584 28.4073 24.4846 27.8069 23.7889 27.8069H23.7503C23.0721 27.8069 22.5051 28.3763 22.5051 29.1099V32.0694C22.5051 32.2795 22.3346 32.4497 22.1248 32.4497C21.9147 32.4497 21.7445 32.2795 21.7445 32.0694V29.1957C21.7445 29.1863 21.7434 29.1766 21.7434 29.167C21.7434 29.1437 21.7445 29.1203 21.7445 29.0972V22.3783C21.7445 21.6182 21.1709 21 20.4755 21C19.7798 21 19.2064 21.618 19.2058 22.3775L19.1981 33.5193C19.1979 33.6799 19.0971 33.8232 18.9458 33.8773C18.7947 33.9314 18.6258 33.8847 18.5239 33.7606L17.1936 32.1412C16.8428 31.7017 16.325 31.4279 15.7641 31.3853C15.2151 31.349 14.6757 31.5425 14.275 31.9196C14.2704 31.9239 14.2655 31.9289 14.2604 31.9332L14 32.1509L18.6124 41.0148C19.3405 42.4139 20.7174 43.29 22.2052 43.29H27.537C29.806 43.29 31.6537 41.2937 31.6561 38.8484C31.6574 37.5534 31.6586 36.5821 31.6597 35.7997C31.6624 33.7081 31.6633 32.9389 31.658 30.6349C31.6563 29.8769 31.0903 29.2737 30.3964 29.2737Z" fill="white"/>
</svg>
