<?xml version="1.0" encoding="utf-8"?>
<!-- Generator: Adobe Illustrator 18.0.0, SVG Export Plug-In . SVG Version: 6.00 Build 0)  -->
<!DOCTYPE svg PUBLIC "-//W3C//DTD SVG 1.1//EN" "http://www.w3.org/Graphics/SVG/1.1/DTD/svg11.dtd">
<svg version="1.1" id="Слой_1" xmlns="http://www.w3.org/2000/svg" xmlns:xlink="http://www.w3.org/1999/xlink" x="0px" y="0px"
	 viewBox="0 0 705 705" enable-background="new 0 0 705 705" xml:space="preserve">
<path d="M443.3,378.5c27.8-26.8,65-41.6,103.6-41.4c56.5-1.2,108.4,31.1,132.2,82.3c3.1,7.1,11.5,10.4,18.6,7.2
	c7.1-3.1,10.4-11.4,7.3-18.6c-19.7-43.9-57.6-77.1-103.7-90.9c23-19.3,36.2-47.9,35.9-78c0-54-40.5-97.9-90.3-97.9
	c-38.8,1-72.7,26.5-84.4,63.5c-16.5-12.8-35.1-22.5-55-28.8c23-19.3,36.2-47.9,36-78c0-54-40.5-97.9-90.3-97.9
	c-49.8,0-90.3,43.9-90.3,97.9c-0.3,30.1,12.9,58.7,35.9,78c-19.9,6.2-38.6,16-55.1,28.8c-11.7-37-45.6-62.5-84.4-63.5
	c-49.8,0-90.3,43.9-90.3,97.9c-0.3,30.1,12.9,58.7,35.9,78C58.8,331,21,364.1,1.2,408c-3.1,7.1,0.1,15.5,7.2,18.6s15.5-0.1,18.6-7.2
	c0,0,0-0.1,0-0.1c23.8-51.2,75.7-83.5,132.2-82.3c38.6-0.2,75.8,14.7,103.6,41.5c0.4,29.2,13.4,56.9,35.8,75.7
	c-19.9,6.2-38.6,16-55.1,28.8c-11.7-37-45.6-62.5-84.4-63.5c-49.8,0-90.3,43.9-90.3,97.9c-0.3,30.1,12.9,58.7,36,78
	c-46.1,13.8-83.9,47-103.7,90.9c-3.2,7.1,0.1,15.5,7.2,18.6s15.5-0.1,18.6-7.2c0,0,0-0.1,0.1-0.1c23.9-51.2,75.7-83.5,132.2-82.3
	c56.5-1.2,108.4,31.1,132.2,82.3c3.1,7.1,11.5,10.4,18.6,7.3c7.1-3.1,10.4-11.5,7.3-18.6l0,0c-19.8-43.9-57.6-77.1-103.8-90.9
	c23-19.3,36.2-47.9,35.9-78c0-0.6-0.1-1.2-0.1-1.9c58-55.3,149.2-55.3,207.2,0c0,0.6-0.1,1.2-0.1,1.9c-0.3,30.1,12.9,58.7,35.9,78
	c-46.1,13.8-84,47-103.8,90.9c-3.1,7.1,0.1,15.5,7.3,18.6c7.1,3.1,15.5-0.1,18.6-7.3c23.9-51.2,75.7-83.5,132.2-82.3
	c56.5-1.2,108.4,31.1,132.2,82.3c3.1,7.1,11.4,10.4,18.6,7.3c7.1-3.1,10.4-11.4,7.3-18.6c0,0,0,0,0,0c-19.8-43.9-57.6-77-103.7-90.9
	c23-19.3,36.2-47.9,36-78c0-54-40.5-97.9-90.3-97.9c-38.8,1-72.7,26.5-84.4,63.4c-16.5-12.8-35.1-22.5-55-28.8
	C429.9,435.4,443,407.7,443.3,378.5z M159.3,587.1c-34.2,0-62.1-31.3-62.1-69.7c0-38.4,27.8-69.7,62.1-69.7
	c32,0,58.5,27.4,61.7,62.4c0.2,2.6,0.3,4.9,0.3,7.3C221.3,555.9,193.5,587.1,159.3,587.1z M546.9,447.8c34.2,0,62.1,31.3,62.1,69.7
	c0,38.4-27.8,69.7-62.1,69.7s-62.1-31.3-62.1-69.7c0-2.3,0.1-4.7,0.3-6.9C488.4,475.2,514.9,447.8,546.9,447.8z M546.9,169.5
	c34.2,0,62.1,31.3,62.1,69.7s-27.8,69.7-62.1,69.7s-62.1-31.3-62.1-69.7c0-2.3,0.1-4.6,0.3-6.9C488.4,196.9,514.9,169.5,546.9,169.5
	L546.9,169.5z M353.1,28.2c34.2,0,62.1,31.3,62.1,69.7s-27.8,69.7-62.1,69.7s-62.1-31.3-62.1-69.7S318.9,28.2,353.1,28.2z
	 M353.1,195.8c38.6-0.2,75.8,14.7,103.6,41.5c0,0.6-0.1,1.2-0.1,1.8c-0.3,30.1,12.9,58.7,35.9,78c-19.5,6.1-37.7,15.5-53.9,27.9
	c-10.8-38.6-45.5-65.6-85.5-66.7c-40,1.1-74.7,28.1-85.5,66.7c-16.2-12.4-34.5-21.8-54-27.9c23-19.3,36.2-47.9,35.9-78
	c0-0.6-0.1-1.2-0.1-1.8C277.3,210.5,314.5,195.7,353.1,195.8z M159.3,169.5c32,0,58.5,27.4,61.7,62.4c0.2,2.6,0.3,4.9,0.3,7.3
	c0,38.4-27.8,69.7-62.1,69.7s-62.1-31.3-62.1-69.7S125,169.5,159.3,169.5z M353.4,445.9c-34.6-0.2-62.3-31.3-62.3-69.7
	c0-38.4,27.8-69.7,62.1-69.7s62.1,31.3,62.1,69.7C415.2,414.5,387.5,445.7,353.4,445.9L353.4,445.9z"/>
</svg>
