<?xml version="1.0" encoding="utf-8"?>
<!-- Generator: Adobe Illustrator 18.0.0, SVG Export Plug-In . SVG Version: 6.00 Build 0)  -->
<!DOCTYPE svg PUBLIC "-//W3C//DTD SVG 1.1//EN" "http://www.w3.org/Graphics/SVG/1.1/DTD/svg11.dtd">
<svg version="1.1" id="Слой_1" xmlns="http://www.w3.org/2000/svg" xmlns:xlink="http://www.w3.org/1999/xlink" x="0px" y="0px"
	 viewBox="0 0 701 701" enable-background="new 0 0 701 701" xml:space="preserve">
<g>
	<path d="M701,438.1h-29.2V102.2c0-8.1-6.5-14.6-14.6-14.6V58.4c24.2,0,43.8,19.6,43.8,43.8V438.1z"/>
	<path d="M657.2,584.2H43.8C19.6,584.2,0,564.6,0,540.4V102.2C0,78,19.6,58.4,43.8,58.4v29.2c-8.1,0-14.6,6.5-14.6,14.6v438.1
		c0,8.1,6.5,14.6,14.6,14.6h613.4c8.1,0,14.6-6.5,14.6-14.6v-43.8H73v-29.2h613.4c8.1,0,14.6,6.5,14.6,14.6v58.4
		C701,564.6,681.4,584.2,657.2,584.2z"/>
	<rect x="189.9" y="671.8" width="321.3" height="29.2"/>
	<path d="M219.1,701v-29.2c15.1,1,28.2-10.5,29.2-25.6c0.1-1.2,0.1-2.4,0-3.6v-73h29.2v73c0.9,31.3-23.8,57.5-55.1,58.4
		C221.3,701,220.2,701,219.1,701z"/>
	<path d="M481.9,701c-31.3,0.9-57.5-23.8-58.4-55.1c0-1.1,0-2.2,0-3.3v-73h29.2v73c-1,15.1,10.5,28.2,25.6,29.2
		c1.2,0.1,2.4,0.1,3.6,0V701z"/>
	<path d="M555,438.1h-29.2v-29.2h-69.5c-8.1,0-14.6-6.5-14.6-14.6c0-3.9,1.5-7.6,4.3-10.3l49.1-49.1l-41.3-41.3l-49.1,49.1
		c-5.7,5.7-15,5.7-20.7,0c-2.7-2.7-4.3-6.4-4.3-10.3v-69.5h-58.4v69.5c0,8.1-6.5,14.6-14.6,14.6c-3.9,0-7.6-1.5-10.3-4.3l-49.1-49.1
		l-41.3,41.3L255,384c5.7,5.7,5.7,15,0,20.7c-2.7,2.7-6.4,4.3-10.3,4.3h-69.5v29.2H146v-43.8c0-8.1,6.5-14.6,14.6-14.6h48.8
		l-34.5-34.5c-5.7-5.7-5.7-14.9,0-20.7l62-62c5.7-5.7,14.9-5.7,20.7,0l34.5,34.5v-48.8c0-8.1,6.5-14.6,14.6-14.6h87.6
		c8.1,0,14.6,6.5,14.6,14.6v48.8l34.5-34.5c5.7-5.7,14.9-5.7,20.7,0l62,62c5.7,5.7,5.7,14.9,0,20.7l-34.5,34.5h48.8
		c8.1,0,14.6,6.5,14.6,14.6V438.1z"/>
	<path d="M408.9,438.1h-29.2c0-16.1-13.1-29.2-29.2-29.2c-16.1,0-29.2,13.1-29.2,29.2h-29.2c0-32.3,26.2-58.4,58.4-58.4
		S408.9,405.9,408.9,438.1z"/>
	<path d="M511.1,262.9c-1.9,0-3.8-0.4-5.6-1.1c-5.5-2.3-9-7.6-9-13.5v-43.8H379.7c-24.2,0-43.8-19.6-43.8-43.8V43.8
		c0-24.2,19.6-43.8,43.8-43.8h204.5C608.4,0,628,19.6,628,43.8v116.8c0,24.2-19.6,43.8-43.8,43.8h-8.6l-54.1,54.1
		C518.7,261.3,515,262.9,511.1,262.9z M379.7,29.2c-8.1,0-14.6,6.5-14.6,14.6v116.8c0,8.1,6.5,14.6,14.6,14.6h131.4
		c8.1,0,14.6,6.5,14.6,14.6V213l33.5-33.5c2.7-2.7,6.5-4.3,10.3-4.3h14.6c8.1,0,14.6-6.5,14.6-14.6V43.8c0-8.1-6.5-14.6-14.6-14.6
		H379.7z"/>
	<path d="M219.1,233.7c-3.9,0-7.6-1.5-10.3-4.3l-54.1-54.1h-37.8c-24.2,0-43.8-19.6-43.8-43.8V43.8C73,19.6,92.6,0,116.8,0h189.9
		v29.2H116.8c-8.1,0-14.6,6.5-14.6,14.6v87.6c0,8.1,6.5,14.6,14.6,14.6h43.8c3.9,0,7.6,1.5,10.3,4.3l33.5,33.5v-23.2
		c0-8.1,6.5-14.6,14.6-14.6h87.6v29.2h-73v43.8c0,5.9-3.6,11.2-9,13.5C222.9,233.3,221,233.7,219.1,233.7z"/>
	<rect x="131.4" y="73" width="175.3" height="29.2"/>
	<rect x="394.3" y="87.6" width="29.2" height="29.2"/>
	<rect x="467.3" y="87.6" width="29.2" height="29.2"/>
	<rect x="540.4" y="87.6" width="29.2" height="29.2"/>
</g>
</svg>
