<?xml version="1.0" encoding="utf-8"?>
<!-- Generator: Adobe Illustrator 18.0.0, SVG Export Plug-In . SVG Version: 6.00 Build 0)  -->
<!DOCTYPE svg PUBLIC "-//W3C//DTD SVG 1.1//EN" "http://www.w3.org/Graphics/SVG/1.1/DTD/svg11.dtd">
<svg version="1.1" id="Слой_1" xmlns="http://www.w3.org/2000/svg" xmlns:xlink="http://www.w3.org/1999/xlink" x="0px" y="0px"
	 viewBox="0 0 705 705" enable-background="new 0 0 705 705" xml:space="preserve">
<g>
	<path d="M11.8,446.5h105.8V423h-94V23.5H282V47h23.5V11.7c0-6.5-5.3-11.8-11.8-11.8h-282C5.3,0,0,5.3,0,11.7v423
		C0,441.2,5.3,446.5,11.8,446.5z"/>
	<path d="M111,60L87.5,48.2c-3.3-1.7-7.2-1.7-10.5,0L53.5,60c-4,2-6.5,6.1-6.5,10.5V94c0,4.5,2.5,8.5,6.5,10.5L77,116.3
		c3.3,1.7,7.2,1.7,10.5,0l23.5-11.8c4-2,6.5-6.1,6.5-10.5V70.5C117.5,66,115,62,111,60z M94,86.7l-11.8,5.9l-11.8-5.9v-9l11.8-5.9
		L94,77.8V86.7z"/>
	<path d="M141,82.2v423c0,6.5,5.3,11.7,11.8,11.7h305.5c6.5,0,11.8-5.3,11.8-11.7v-423c0-6.5-5.3-11.8-11.8-11.8H152.8
		C146.3,70.5,141,75.8,141,82.2z M164.5,94h282v399.5h-282V94z"/>
	<path d="M375.2,230.9c-0.3-0.7-0.6-1.4-1-2c-0.2-0.3-0.4-0.6-0.6-0.9c-0.4-0.6-0.9-1.1-1.4-1.5c-0.3-0.3-0.6-0.5-0.9-0.8
		c-0.3-0.2-0.3-0.3-0.4-0.4c-0.5-0.3-1.1-0.6-1.6-0.8c-0.2-0.1-0.4-0.3-0.6-0.4l-58.8-23.5c-2.8-1.1-5.9-1.1-8.7,0l-58.8,23.5
		c-0.2,0.1-0.4,0.3-0.6,0.4c-0.5,0.2-1.1,0.5-1.6,0.8c-0.2,0.1-0.3,0.3-0.4,0.4c-0.2,0.1-0.6,0.5-0.9,0.8c-0.5,0.5-1,1-1.4,1.5
		c-0.2,0.3-0.4,0.6-0.6,0.9c-0.4,0.6-0.7,1.3-1,2c-0.1,0.3-0.3,0.6-0.4,0.9c-0.3,1-0.5,2.1-0.5,3.2v58.8c0,4.8,2.9,9.1,7.4,10.9
		l58.8,23.5c0.1,0,0.3,0,0.4,0.1c2.5,1,5.3,1,7.9,0c0.1,0,0.3,0,0.4-0.1l58.8-23.5c4.5-1.8,7.4-6.1,7.4-10.9V235
		c0-1.1-0.2-2.2-0.5-3.2C375.4,231.5,375.3,231.2,375.2,230.9z M305.5,224.2l27.1,10.8l-27.1,10.8L278.4,235L305.5,224.2z
		 M258.5,252.4l35.3,14.1v33.4l-35.3-14.1V252.4z M317.3,299.9v-33.4l35.3-14.1v33.4L317.3,299.9z"/>
	<path d="M693.3,70.5h-188c-6.5,0-11.8,5.3-11.8,11.8v117.5c0,6.5,5.3,11.8,11.8,11.8h188c6.5,0,11.8-5.3,11.8-11.8V82.2
		C705,75.8,699.7,70.5,693.3,70.5z M681.5,188H517V94h164.5V188z"/>
	<rect x="540.5" y="117.5" width="23.5" height="23.5"/>
	<path d="M705,246.7c0-6.5-5.3-11.8-11.8-11.8h-188c-6.5,0-11.8,5.3-11.8,11.8v117.5c0,6.5,5.3,11.8,11.8,11.8h188
		c6.5,0,11.8-5.3,11.8-11.8V246.7z M681.5,352.5H517v-94h164.5V352.5z"/>
	<rect x="540.5" y="293.7" width="23.5" height="23.5"/>
	<rect x="587.5" y="293.7" width="70.5" height="23.5"/>
	<path d="M117.5,693.2c0,6.5,5.3,11.8,11.8,11.8h258.5c6.5,0,11.8-5.3,11.8-11.8v-141c0-6.5-5.3-11.8-11.8-11.8H129.3
		c-6.5,0-11.8,5.3-11.8,11.8V693.2z M141,564h235v117.5H141V564z"/>
	<path d="M693.3,540.5H434.8c-6.5,0-11.8,5.3-11.8,11.8v141c0,6.5,5.3,11.8,11.8,11.8h258.5c6.5,0,11.8-5.3,11.8-11.8v-141
		C705,545.8,699.7,540.5,693.3,540.5z M446.5,564h235v11.8c0,6.5-5.3,11.8-11.8,11.8H458.3c-6.5,0-11.8-5.3-11.8-11.8V564z
		 M446.5,681.5v-72.7c3.8,1.4,7.7,2.1,11.8,2.2h211.5c4,0,8-0.8,11.8-2.2v72.7H446.5z"/>
	<path d="M228.5,600.5L205,588.7c-3.3-1.7-7.2-1.7-10.5,0L171,600.5c-4,2-6.5,6.1-6.5,10.5v23.5c0,4.5,2.5,8.6,6.5,10.6l23.5,11.8
		c3.3,1.7,7.2,1.7,10.5,0l23.5-11.8c4-2,6.5-6.1,6.5-10.6V611C235,606.5,232.5,602.5,228.5,600.5z M211.5,627.2l-11.8,5.9l-11.8-5.9
		v-9l11.8-5.9l11.8,5.9V627.2z"/>
	<rect x="470" y="634.5" width="23.5" height="23.5"/>
	<rect x="517" y="634.5" width="70.5" height="23.5"/>
</g>
</svg>
