<svg xmlns="http://www.w3.org/2000/svg" width="1800" height="600" viewBox="0 0 1800 562.5" shape-rendering="geometricPrecision" text-rendering="geometricPrecision" image-rendering="optimizeQuality" fill-rule="evenodd" clip-rule="evenodd"><defs><style>.str0{stroke:#fff;stroke-width:.84375}.fil0{fill:none}</style></defs><path class="fil0 str0" d="M950.271 194.725l-.001.001m-258.232 182.91l-33.361 33.361m31.105-38.761l-43.717 43.718m41.326-49.003l-51.814 51.813m49.313-56.978l-58.699 58.7m56.088-63.748l-64.786 64.786m62.057-69.726l-70.282 70.281m67.448-75.115l-75.295 75.296m72.349-80.012l-79.817 79.817m76.762-84.438l-20.458 20.458M629.62 378.72l-42.746 42.747m80.686-88.348l-16.943 16.944m-30.987 30.986l-39.47 39.471m84.15-91.81l-15.375 15.377m-37.902 37.9l-37.273 37.274m87.186-94.863l-15.134 15.134m-42.745 42.745l-35.432 35.432m89.859-97.515l-15.777 15.776m-46.123 46.123l-33.79 33.791m92.134-99.807l-17.032 17.032m-48.15 48.15l-32.537 32.537m94.074-101.741l-18.703 18.703m-49.098 49.098l-31.6 31.6m95.646-103.326l-20.635 20.635M576.768 377.9l-30.955 30.955m96.886-104.55l-22.728 22.729m-48.334 48.334l-30.64 30.64m97.756-105.416l-24.875 24.875m-46.772 46.77l-30.675 30.675m98.288-105.949l-27.032 27.032m-44.456 44.457l-31.105 31.104m98.455-106.125l-29.127 29.126m-41.369 41.368l-31.996 31.995m98.261-105.912l-31.102 31.103m-37.483 37.483l-33.426 33.425m97.67-105.348l-32.985 32.986m-32.628 32.627l-35.522 35.523m96.708-104.358l-34.754 34.752m-29.043 29.042l-36.052 36.052m93.865-101.539l-34.94 34.94m-30.547 30.547l-31.179 31.179m90.454-98.11l-34.812 34.811m-32.121 32.119l-25.945 25.945m86.668-94.338l-34.588 34.588m-33.804 33.805l-20.287 20.288m-50.058 50.058l-1.207 1.207m133.745-141.432L558.73 311.61m-35.632 35.632L508.95 361.39m-48.511 48.511l-8.894 8.894m135.348-142.989l-33.817 33.818m-37.618 37.617l-7.51 7.51m-47.509 47.509l-16.534 16.535m137.027-144.708l-33.338 33.338m-39.816 39.816l-.213.214m-47.126 47.126l-24.213 24.214m139.019-146.682l-32.881 32.88m-81.926 81.926l-31.875 31.876m141.392-149.057l-32.557 32.554m-76.96 76.958l-39.546 39.544m144.368-152.05l-32.533 32.535m-72.289 72.292l-44.623 44.626m145.726-153.37l-33.105 33.104m-67.998 67.999l-44.624 44.623m143.545-151.22l-34.846 34.846m-64.075 64.077l-44.623 44.624m139.902-147.572l-34.688 34.69m-60.591 60.59l-44.623 44.624M549.74 251.616l-31.695 31.695m-57.608 57.61l-68.565 68.567m151.744-159.4l-28.003 28.002m-55.176 55.172l-82.803 82.8m159.7-167.358l-23.53 23.53M460.438 325.6l-93.891 93.889m164.31-171.982l-18.162 18.161m-52.257 52.256L357.004 421.356M524.22 246.484l-11.83 11.83m-51.953 51.952L348.528 422.172m168.843-176.531l-4.318 4.318m-52.616 52.616L340.81 422.201m119.626-127.263L333.625 421.746M460.437 287.26l-59.552 59.55m-15.894 15.895l-58.199 58.197M460.437 279.59l-50.818 50.817m-41.041 41.042l-48.254 48.254M460.437 271.93l-47.835 47.831m-54.68 54.677l-43.765 43.763m146.28-153.942l-46.694 46.697m-64.618 64.622l-40.851 40.852m152.163-159.84l-46.621 46.621m-72.443 72.442l-38.745 38.745M460.437 248.93l-47.297 47.293m-78.756 78.753l-37.16 37.156m155.874-163.535l-41.221 41.223m-83.886 83.893l-35.935 35.938M443.21 250.839l-33.075 33.07m-88.07 88.056l-33.091 33.088m143.61-151.263l-24.618 24.617m-91.394 91.394l-24.647 24.647m129.061-136.732l-15.556 15.556m-93.994 93.991l-15.57 15.571m112.126-119.793l-5.443 5.442m-95.896 95.9l-5.46 5.46m1497.97 27.414l-24.183 24.183m24.997-32.667l-33.481 33.48m32.535-40.201l-39.255 39.255m37.26-44.922l-42.926 42.925m40.132-47.808l-45.014 45.014m41.548-49.21l-45.744 45.744m41.637-49.296l-45.186 45.186m40.4-48.076l-43.288 43.288m37.744-45.4l-39.855 39.854m33.293-40.965l-34.405 34.404m26.244-33.91l-25.75 25.75m11.408-19.09l-4.738 4.739m-50.377 42.714l-6.537 6.538m6.537-14.198l-14.197 14.198m14.197-21.86l-21.86 21.86m21.86-29.534l-29.534 29.534m29.534-37.184l-37.183 37.184m37.183-44.862l-44.861 44.862m44.861-52.515l-46.538 46.537m46.538-54.21l-46.538 46.537m46.538-54.198l-46.538 46.537m46.538-54.205l-46.538 46.54m46.538-54.226l-46.538 46.538m46.538-54.179l-46.538 46.54m46.538-54.219l-46.538 46.54m46.538-54.201l-46.538 46.538m46.538-54.205l-46.538 46.537m46.538-54.22l-46.539 46.54m46.54-54.18l-46.54 46.54m46.542-54.216l-46.542 46.54m-88.972 88.976l-1.334 1.334m136.59-144.26l-46.284 46.284m-88.972 88.974l-9.002 9.002m143.464-151.133l-45.49 45.49m-88.972 88.976l-16.667 16.667m149.901-157.56l-44.261 44.26m-88.973 88.967l-24.333 24.333m155.955-163.611l-42.65 42.647m-88.972 88.971l-31.994 31.993m161.667-169.34l-40.7 40.7m-88.973 88.972l-39.668 39.668m167.097-174.754l-38.456 38.456m-88.972 88.971l-46.56 46.558m171.446-179.134l-36.368 36.369m-88.519 88.518l-46.559 46.56m168.667-176.304l-34.957 34.956m-87.15 87.149l-46.56 46.558m165.62-173.294l-33.987 33.987m-85.074 85.071l-46.559 46.558m162.34-170.006l-33.362 33.361m-82.418 82.419l-46.56 46.559m155.876-163.531l-30.06 30.057m-79.256 79.252l-46.559 46.555m147.791-155.456l-25.618 25.62m-75.614 75.618l-46.56 46.563m139.34-147.016l-21.276 21.275m-71.505 71.505l-46.559 46.558m130.531-138.19l-17.05 17.049m-66.922 66.918l-46.559 46.556m121.204-128.868l-12.827 12.828m-61.818 61.823l-46.56 46.562m111.318-118.972l-8.63 8.628m-56.129 56.122l-46.559 46.552m100.691-108.35l-4.438 4.438m-49.693 49.694l-46.56 46.56m89.094-96.765l-.26.26m-42.22 42.217l-46.614 46.614m48.003-55.67l-48.003 48.004m54.638-62.3l-54.638 54.634m40.202-47.867l-40.202 40.198m257.561 54.551c-17.865 0-32.35 14.486-32.35 32.356.001 17.865 14.485 32.352 32.35 32.352 17.866 0 32.352-14.487 32.352-32.352.001-17.87-14.486-32.356-32.352-32.356zm-979.548-20.294v-96.675h38.901v-46.546h-38.9v-53.841h-46.54v197.062c0 62.747 43.05 84.992 85.45 84.992v-46.536c-26.298 0-38.912-12.93-38.91-38.456zm110.994-112.76c-45.254 45.243-45.254 118.582 0 163.837 45.226 45.234 118.593 45.236 163.837-.02l-32.92-32.897c-27.007 27.012-70.983 27.013-98.016.001-23.29-23.307-26.494-59.195-9.617-85.97a69.26 69.26 0 0 1 9.617-12.045 68.796 68.796 0 0 1 25.35-16.112 69.27 69.27 0 0 1 10.555-2.889 69.915 69.915 0 0 1 35.765 2.566 68.869 68.869 0 0 1 14.674 7.094v33.158h44.622v-56.822h-.13c-.532-.53-1.069-1.048-1.608-1.565l-162.128 1.663zm-865.156-.1c-45.25 45.25-45.25 118.595 0 163.827 45.234 45.243 118.574 45.243 163.828 0l-32.922-32.893c-27.022 27.005-70.983 27.007-98.01 0-27.012-27.035-27.012-70.993 0-98.01 23.408-23.404 59.505-26.497 86.31-9.365v33.264h44.622v-56.822c-45.255-45.233-118.594-45.233-163.828 0zm1567.19-33.837c-26.92 0-51.092 11.699-67.764 30.263-16.663-18.564-40.857-30.262-67.772-30.262-24.86 0-47.389 9.988-63.829 26.149l-27.192-.002v202.059h46.542V281.619c0-24.577 19.933-44.486 44.48-44.486 24.593 0 44.494 19.912 44.494 44.487v137.166h46.56V281.619c0-24.577 19.91-44.485 44.48-44.485 24.57-.002 44.492 19.91 44.492 44.486l.001 137.166h46.538V281.978c0-.128.015-.242.015-.358 0-50.277-40.762-91.04-91.045-91.04zM1209.76 375.725c-34.291 0-62.841-25.048-68.333-57.806l-.006-.037a70.653 70.653 0 0 1-.73-5.918c-.026-.316-.046-.633-.067-.95a69.26 69.26 0 0 1-.157-4.591 60.164 60.164 0 0 1 .07-2.989c.105-2.467.338-4.9.696-7.296.064-.425.134-.848.205-1.271a68.87 68.87 0 0 1 2.533-10.2 68.956 68.956 0 0 1 5.176-11.784c.473-.854.963-1.699 1.471-2.53 8.484-13.86 21.703-24.518 37.386-29.719a69.002 69.002 0 0 1 21.756-3.505c1.543 0 3.073.057 4.59.158a69.09 69.09 0 0 1 13.175 2.157c29.624 7.863 51.518 34.903 51.518 66.979 0 38.203-31.081 69.302-69.283 69.302zm0-185.146c-.798 0-1.593.015-2.387.031h-.01c-2.73.056-5.433.21-8.114.453h-.003a115.252 115.252 0 0 0-18.543 3.21c-31.734 8.23-58.222 29.614-73.287 57.954a115.318 115.318 0 0 0-9.79 25.123 114.627 114.627 0 0 0-2.074 9.74 116.943 116.943 0 0 0-1.593 16.925 113.28 113.28 0 0 0-.032 2.407c0 1.732.046 3.456.122 5.169.107 2.397.281 4.775.533 7.133.241 2.269.551 4.516.921 6.744 9.109 54.849 56.865 96.795 114.257 96.795 63.887-.001 115.85-51.96 115.85-115.841.001-48.386-29.824-89.933-72.059-107.24l-43.79-8.603zm-605.655 89.427c-24.42-5.783-44.94-9.972-44.94-25.141 0-20.966 26.061-24.29 40.558-24.29 14.713-.003 40.793 5.563 40.793 28.84l48.532-.002c0-41.806-35.894-68.823-89.325-68.823-43.416 0-87.347 23.643-87.347 68.826 0 44.588 45.378 52.832 83.707 61.888 28.413 6.713 54.671 10.81 54.671 31.189.001 28.798-35.585 29.792-49.824 29.792-4.601 0-44.835 0-44.835-35.045l-48.531-.002c0 49.253 46.97 75.021 93.366 75.021 57.809 0 96.629-25.096 96.629-72.483 0-51.202-54.017-60.437-93.454-69.77zM344.593 375.73c-38.205 0-69.274-31.087-69.274-69.304 0-38.207 31.069-69.287 69.274-69.287 38.217 0 69.303 31.082 69.303 69.287.001 38.216-31.086 69.304-69.303 69.304zm0-185.138c-63.868 0-115.836 51.967-115.836 115.834 0 63.882 51.968 115.842 115.836 115.842 24.972 0 53.48-11.594 71.224-31.92v28.443h44.624V216.737h-42.615c-20.636-16.867-46.601-26.142-73.233-26.145z" id="Слой_x0020_1"/></svg>